<?xml version="1.0" standalone="no"?>
<!DOCTYPE svg PUBLIC "-//W3C//DTD SVG 20010904//EN"
 "http://www.w3.org/TR/2001/REC-SVG-20010904/DTD/svg10.dtd">
<svg version="1.0" xmlns="http://www.w3.org/2000/svg"
 width="512.000000pt" height="512.000000pt" viewBox="0 0 512.000000 512.000000"
 preserveAspectRatio="xMidYMid meet">
<metadata>
Created by potrace 1.11, written by Peter Selinger 2001-2013
</metadata>
<g transform="translate(0.000000,512.000000) scale(0.100000,-0.100000)"
fill="#000000" stroke="none">
<path d="M224 5009 c-43 -12 -108 -80 -122 -127 -9 -30 -12 -603 -12 -2329 l0
-2290 23 -44 c13 -24 43 -57 66 -74 l43 -30 2321 0 2322 0 38 24 c21 13 50 42
65 65 l27 41 3 2295 c2 1759 0 2305 -9 2339 -15 54 -73 113 -127 129 -49 15
-4588 16 -4638 1z m4514 -142 c46 -17 88 -60 106 -110 15 -38 16 -242 14
-2214 l-3 -2171 -31 -39 c-17 -21 -48 -48 -70 -60 l-39 -23 -2161 0 c-1577 0
-2171 3 -2195 11 -43 15 -86 54 -110 101 -19 36 -19 91 -19 2194 0 1629 3
2166 12 2196 13 43 84 114 121 121 12 2 994 5 2182 5 1631 0 2168 -2 2193 -11z"/>
<path d="M860 4093 c-1 -968 1 -1647 4 -1650 5 -5 15 5 96 97 36 41 76 86 90
101 14 15 38 42 54 60 16 19 64 72 105 119 42 47 81 90 86 96 6 6 26 29 45 50
20 21 78 86 130 144 52 58 97 107 100 110 3 3 39 43 80 90 71 80 136 153 170
190 8 9 32 35 53 58 l37 42 0 305 0 305 -525 0 -525 0 0 -117z"/>
<path d="M2748 4093 c-56 -65 -149 -172 -207 -238 -57 -66 -120 -138 -140
-161 -20 -22 -54 -62 -76 -89 -22 -26 -56 -65 -75 -85 -19 -21 -49 -55 -67
-77 -17 -21 -40 -47 -50 -58 -10 -11 -45 -51 -78 -90 -33 -38 -62 -72 -65 -75
-3 -3 -53 -59 -110 -125 -58 -66 -110 -125 -115 -131 -6 -6 -35 -39 -65 -74
-30 -35 -64 -73 -75 -84 -11 -12 -51 -57 -89 -101 -39 -44 -75 -85 -80 -90
-10 -9 -43 -47 -166 -189 -14 -16 -38 -43 -55 -60 -16 -17 -66 -71 -110 -121
-44 -49 -100 -112 -125 -139 -59 -64 -112 -122 -127 -140 -12 -14 -14 -200
-13 -918 l0 -128 520 0 520 0 0 526 0 526 99 101 c54 56 113 117 129 135 l30
32 73 -117 c40 -65 104 -169 142 -231 39 -63 70 -120 70 -128 0 -8 3 -12 5 -9
3 3 36 -46 74 -108 37 -61 72 -119 77 -127 6 -8 37 -60 70 -115 33 -55 112
-183 174 -285 l114 -185 631 -3 632 -2 -35 54 c-19 30 -35 59 -35 65 0 5 -4
11 -9 13 -5 2 -45 62 -90 133 -45 72 -150 236 -233 365 -83 129 -156 244 -162
254 -6 11 -14 25 -19 30 -5 9 -149 234 -272 429 -48 76 -302 472 -351 548 -34
53 -73 114 -88 137 l-26 42 36 37 c20 21 145 150 278 287 132 137 270 279 306
316 36 37 166 172 290 299 124 128 227 237 228 242 2 5 7 7 12 4 4 -3 10 2 14
10 5 13 -67 15 -604 15 l-609 0 -103 -117z"/>
</g>
</svg>
